<svg width="200" height="200" viewBox="0 0 200 200" fill="none" xmlns="http://www.w3.org/2000/svg">
  <!-- Brain/AI representation -->
  <path d="M100 40 C80 40 70 50 70 70 C70 85 75 95 85 105 L85 140 L115 140 L115 105 C125 95 130 85 130 70 C130 50 120 40 100 40 Z" fill="#3498db" opacity="0.8"/>
  
  <!-- Neural network nodes -->
  <circle cx="80" cy="70" r="4" fill="#2ecc71"/>
  <circle cx="120" cy="70" r="4" fill="#2ecc71"/>
  <circle cx="90" cy="90" r="4" fill="#f39c12"/>
  <circle cx="110" cy="90" r="4" fill="#f39c12"/>
  <circle cx="100" cy="110" r="4" fill="#e74c3c"/>
  
  <!-- Neural connections -->
  <line x1="80" y1="70" x2="90" y2="90" stroke="#3498db" stroke-width="2"/>
  <line x1="120" y1="70" x2="110" y2="90" stroke="#3498db" stroke-width="2"/>
  <line x1="90" y1="90" x2="100" y2="110" stroke="#f39c12" stroke-width="2"/>
  <line x1="110" y1="90" x2="100" y2="110" stroke="#f39c12" stroke-width="2"/>
  
  <!-- AI processing lines -->
  <line x1="50" y1="60" x2="70" y2="70" stroke="#9b59b6" stroke-width="2" stroke-dasharray="3,3"/>
  <line x1="150" y1="60" x2="130" y2="70" stroke="#9b59b6" stroke-width="2" stroke-dasharray="3,3"/>
</svg>
