<svg width="200" height="200" viewBox="0 0 200 200" fill="none" xmlns="http://www.w3.org/2000/svg">
  <!-- Shield -->
  <path d="M100 20 L160 40 V80 C160 120 140 140 100 160 C60 140 40 120 40 80 V40 L100 20 Z" fill="#e74c3c" stroke="#c0392b" stroke-width="2"/>
  
  <!-- Lock -->
  <rect x="85" y="70" width="30" height="25" rx="3" fill="#2c3e50"/>
  <path d="M95 70 V65 C95 58 100 50 100 50 C100 50 105 58 105 65 V70" stroke="#2c3e50" stroke-width="3" fill="none"/>
  
  <!-- Checkmark -->
  <path d="M85 90 L95 100 L115 80" stroke="white" stroke-width="4" fill="none" stroke-linecap="round" stroke-linejoin="round"/>
  
  <!-- Circuit patterns -->
  <circle cx="60" cy="50" r="3" fill="#3498db"/>
  <circle cx="140" cy="50" r="3" fill="#3498db"/>
  <line x1="60" y1="50" x2="75" y2="60" stroke="#3498db" stroke-width="2"/>
  <line x1="140" y1="50" x2="125" y2="60" stroke="#3498db" stroke-width="2"/>
</svg>
